<?xml version="1.0" standalone="no"?>
<!DOCTYPE svg PUBLIC "-//W3C//DTD SVG 20010904//EN"
 "http://www.w3.org/TR/2001/REC-SVG-20010904/DTD/svg10.dtd">
<svg version="1.0" xmlns="http://www.w3.org/2000/svg"
 width="860.000000pt" height="860.000000pt" viewBox="0 0 860.000000 860.000000"
 preserveAspectRatio="xMidYMid meet">
<metadata>
Created by potrace 1.11, written by Peter Selinger 2001-2013
</metadata>
<g transform="translate(0.000000,860.000000) scale(0.100000,-0.100000)"
fill="#000000" stroke="none">
<path d="M4060 8050 c-967 -84 -1861 -508 -2447 -1162 -460 -513 -787 -1163
-923 -1838 -58 -287 -65 -364 -65 -750 0 -429 19 -586 111 -940 258 -989 834
-1778 1669 -2283 369 -224 917 -442 1288 -512 235 -45 711 -59 995 -30 421 43
763 137 1127 310 354 168 657 387 981 710 343 341 593 679 789 1065 207 410
319 779 377 1250 20 161 17 629 -6 815 -113 949 -484 1724 -1123 2346 -161
157 -302 270 -503 404 -496 331 -1015 528 -1580 600 -148 19 -540 27 -690 15z
m695 -290 c498 -55 1113 -302 1540 -618 640 -475 1105 -1169 1300 -1942 68
-268 94 -478 102 -810 6 -262 -4 -447 -37 -670 -121 -813 -526 -1522 -1170
-2051 -195 -160 -493 -359 -678 -453 l-52 -26 -6 27 c-69 313 -193 629 -322
823 -105 157 -267 303 -420 379 l-74 36 7 40 c3 22 22 87 41 144 19 58 31 107
26 110 -4 3 -78 58 -163 122 -203 152 -411 299 -705 500 -273 185 -745 502
-756 507 -13 6 -9 -97 7 -197 29 -178 101 -313 247 -466 l98 -102 -20 -59
c-75 -216 -85 -396 -29 -506 11 -22 19 -41 17 -43 -2 -1 -41 -22 -88 -46 -240
-124 -456 -357 -595 -643 -67 -138 -136 -345 -166 -498 l-22 -117 -31 16
c-175 90 -483 286 -635 407 -297 234 -529 482 -726 776 -299 447 -466 936
-526 1535 -15 159 -16 566 0 735 74 795 406 1522 955 2088 507 523 1084 831
1802 962 140 25 235 36 469 54 84 6 514 -4 610 -14z"/>
<path d="M3714 7283 c-9 -62 11 -347 32 -443 20 -93 70 -202 117 -256 20 -23
66 -57 102 -75 l65 -34 0 -192 c0 -142 -3 -194 -12 -200 -7 -4 -121 -10 -253
-13 -132 -3 -248 -10 -258 -14 -26 -12 -34 -36 -30 -82 5 -40 5 -41 81 -72
253 -104 432 -285 496 -501 l16 -53 -60 -66 c-120 -133 -164 -259 -158 -451 3
-123 4 -120 -54 -141 -53 -18 -34 -41 115 -137 78 -50 228 -153 332 -227 276
-197 645 -443 760 -508 104 -58 221 -118 230 -118 13 0 3 228 -14 332 -17 97
-54 243 -76 300 -5 14 2 18 42 24 78 11 119 65 153 200 9 37 19 47 88 92 114
75 258 140 390 175 110 29 128 31 297 31 142 0 194 -3 245 -17 213 -59 360
-152 475 -301 103 -135 167 -308 186 -502 33 -343 -69 -639 -282 -810 -297
-240 -760 -255 -1253 -40 -279 122 -612 343 -1085 720 -654 521 -1031 740
-1423 828 -88 20 -130 23 -283 22 -153 0 -192 -4 -259 -22 -227 -63 -428 -198
-567 -381 -72 -96 -155 -268 -184 -384 -45 -180 -43 -395 6 -577 11 -41 50
-136 87 -210 l66 -135 1 -92 c0 -82 2 -94 23 -116 35 -37 62 -40 136 -12 36
13 72 22 80 19 8 -3 20 -29 26 -57 7 -29 31 -93 55 -143 75 -156 191 -249 326
-261 l61 -6 -7 64 c-13 128 -43 204 -139 351 -29 46 -63 102 -75 125 -23 45
-49 60 -80 44 -34 -19 -47 -11 -18 10 65 49 89 157 51 234 -29 58 -65 80 -132
80 l-57 0 -48 95 c-62 123 -81 211 -74 350 4 80 11 123 32 180 97 267 340 447
648 480 221 24 451 -30 707 -167 199 -106 281 -163 812 -560 185 -139 329
-244 598 -434 383 -272 706 -427 1020 -491 101 -20 143 -23 345 -23 214 1 238
2 342 27 138 33 260 82 361 145 91 56 222 182 282 272 97 145 171 350 199 554
16 113 14 339 -4 443 -99 573 -536 988 -1065 1011 -344 15 -686 -128 -1181
-494 -70 -51 -130 -93 -134 -93 -19 0 -68 46 -86 82 -16 32 -23 73 -30 182
-12 165 -26 224 -71 287 -18 26 -57 79 -85 119 -32 44 -53 84 -53 100 0 32 65
168 125 262 92 141 202 217 349 240 l76 13 0 96 0 96 -227 6 c-126 3 -240 9
-255 13 l-28 6 0 179 0 179 74 72 c87 86 133 171 174 316 24 88 27 113 27 272
0 96 -3 187 -7 201 l-7 25 -98 -32 c-251 -84 -636 -84 -963 0 -52 13 -103 27
-112 31 -14 5 -18 -2 -24 -42z"/>
</g>
</svg>
